<svg version="1.1" xmlns="http://www.w3.org/2000/svg" fill-rule="evenodd" clip-rule="evenodd" height="1024" width="1024" viewBox="0 0 1024 1024"><path d="M595.0464 392.442311c-5.461333-5.461333-12.686222-8.203378-21.6064-8.203378-10.080711 0-17.419378 2.742044-22.050133 8.203378-5.757156 5.188267-8.635733 12.686222-8.635734 22.471111v40.630045h-101.114311c-27.079111 0-40.595911 13.368889-40.595911 40.163555v131.800178c0 27.067733 13.5168 40.607289 40.595911 40.607289h101.114311v80.7936c0 8.078222 2.298311 14.700089 6.894934 19.899733 5.188267 7.190756 13.118578 10.797511 23.779555 10.797511 11.241244 0 19.308089-3.606756 24.200534-10.797511 4.027733-5.199644 6.030222-11.821511 6.030222-19.899733v-80.7936h101.125689c27.067733 0 40.607289-13.539556 40.607289-40.607289V495.707022c0-26.794667-13.539556-40.163556-40.607289-40.163555h-101.125689v-40.630045c0.011378-9.796267-2.855822-17.282844-8.612978-22.471111z m-52.292267 219.943822h-70.872177c-6.621867 0-9.9328-3.470222-9.9328-10.387911v-80.782222c0-6.917689 3.310933-10.387911 9.9328-10.387911h70.872177v101.558044z m131.800178-101.546666c6.599111 0 9.921422 3.458844 9.921422 10.387911v80.782222c0 6.917689-3.322311 10.387911-9.921422 10.387911h-70.883555v-101.546667h70.883555zM360.265956 399.291733c0-8.328533-2.605511-15.246222-7.793778-20.741689-5.461333-5.461333-12.231111-8.203378-20.286578-8.203377H179.643733c-15.268978 0-22.892089-5.882311-22.892089-17.703823v-44.942222h151.233423c8.624356 0 15.416889-2.446222 20.309333-7.338666 5.188267-5.199644 7.771022-11.969422 7.771022-20.320712 0-7.793778-2.446222-14.415644-7.350044-19.876977-4.892444-5.461333-11.389156-8.203378-19.444622-8.203378H156.307911V216.519111c0-7.759644 1.456356-12.959289 4.357689-15.553422 2.8672-2.594133 8.339911-3.879822 16.406756-3.879822h150.778311c7.486578 0 13.983289-2.594133 19.456-7.7824s8.214756-11.218489 8.214755-18.147556c0-8.647111-2.4576-15.689956-7.350044-21.174044-5.188267-5.176889-11.969422-7.771022-20.320711-7.771023H140.788622c-30.560711 0-45.818311 14.256356-45.818311 42.769067v197.472711c0 13.255111 4.039111 23.904711 12.105956 31.960178 8.351289 7.793778 20.161422 11.662222 35.441777 11.662222h187.505778c20.150044 0.011378 30.242133-8.9088 30.242134-26.783289zM417.291378 435.165867c20.1728 0 30.253511-10.501689 30.253511-31.5392v-77.346134c0-10.922667 5.3248-20.445867 15.997155-28.501333 10.6496-8.055467 22.027378-12.105956 34.133334-12.105956 13.243733 0 23.904711 3.458844 31.982933 10.376534 8.328533 7.190756 12.515556 16.713956 12.515556 28.501333v17.282845c0 20.741689 9.944178 31.095467 29.809777 31.095466 21.037511 0 31.561956-10.501689 31.561956-31.5392v-19.410489c0-28.524089-8.374044-50.267022-25.065244-65.251555-16.713956-14.973156-39.3216-22.471111-67.845689-22.471111-27.363556 0-48.401067 8.055467-63.089778 24.200533-2.025244-16.133689-11.935289-24.200533-29.809778-24.200533-10.080711 0-17.863111 2.446222-23.335822 7.350044-5.461333 5.188267-8.203378 11.662222-8.203378 19.444622v142.153956c0 21.310578 10.376533 31.960178 31.095467 31.960178z" fill="#515151"></path><path d="M560.628622 142.279111c-0.136533 0-0.238933-0.056889-0.341333-0.056889-0.079644 0-0.147911 0.045511-0.216178 0.045511-0.261689 0-0.546133-0.045511-0.796444-0.045511-0.284444 0-0.546133 0.216178-0.8192 0.375467-14.392889 0.967111-25.838933 12.686222-25.838934 27.295289 0 14.722844 11.605333 26.5216 26.123378 27.363555 0.170667 0.193422 0.352711 0.420978 0.546133 0.420978 173.568 0 314.2656 140.720356 314.2656 314.333867 0 173.568-140.6976 314.299733-314.2656 314.299733-165.421511 0-300.680533-127.852089-313.093688-290.053689l-0.284445 0.022756c0.034133-0.398222 0.238933-0.739556 0.238933-1.149156a27.693511 27.693511 0 0 0-55.364266 0c0 0.568889 0.273067 1.035378 0.3072 1.615645-0.056889 0.034133-0.3072 0.056889-0.3072 0.1024C203.605333 729.406578 363.406222 881.777778 559.274667 881.777778c204.196978 0 369.755022-165.558044 369.755022-369.7664 0-203.776-164.829867-368.992711-368.401067-369.732267z" fill="#515151"></path></svg>